<?xml version="1.0" encoding="iso-8859-1"?>
<!-- Generator: Adobe Illustrator 19.0.0, SVG Export Plug-In . SVG Version: 6.00 Build 0)  -->
<svg version="1.1" id="Capa_1" xmlns="http://www.w3.org/2000/svg" xmlns:xlink="http://www.w3.org/1999/xlink" x="0px" y="0px"
	 viewBox="0 0 448 448" style="enable-background:new 0 0 448 448;" xml:space="preserve">
<g>
	<g>
		<path d="M208.178,168c-4.422,0-8,3.578-8,8c0,4.422,3.578,8,8,8c22.054,0,40,17.946,40,40s-17.946,40-40,40c-4.422,0-8,3.578-8,8
			c0,4.422,3.578,8,8,8c30.875,0,56-25.125,56-56C264.178,193.125,239.054,168,208.178,168z"/>
	</g>
</g>
<g>
	<g>
		<path d="M208.178,192c-4.422,0-8,3.578-8,8c0,4.422,3.578,8,8,8c8.82,0,16,7.18,16,16c0,4.422,3.578,8,8,8c4.422,0,8-3.578,8-8
			C240.178,206.351,225.827,192,208.178,192z"/>
	</g>
</g>
<g>
	<g>
		<path d="M208.178,144c-4.422,0-8,3.578-8,8c0,4.422,3.578,8,8,8c35.297,0,64,28.711,64,64s-28.703,64-64,64
			c-17.07,0-33.133-6.649-45.226-18.711c-3.125-3.11-8.187-3.125-11.313,0.016c-3.117,3.125-3.117,8.195,0.016,11.313
			C166.773,295.695,186.842,304,208.178,304c44.11,0,80-35.89,80-80C288.178,179.89,252.288,144,208.178,144z"/>
	</g>
</g>
<g>
	<g>
		<rect x="344" y="144" width="16" height="48"/>
	</g>
</g>
<g>
	<g>
		<rect x="344" y="224" width="16" height="79.736"/>
	</g>
</g>
<g>
	<g>
		<path d="M293.685,82.221L280,0H136l-13.718,82.23C102.505,88.162,88,106.291,88,128v192c0,21.709,14.505,39.838,34.282,45.77
			L136,448h144l13.685-82.221C313.478,359.858,328,341.721,328,320V128C328,106.279,313.478,88.142,293.685,82.221z M149.553,16
			h116.89l10.753,64H138.854L149.553,16z M266.443,432h-116.89l-10.699-64h138.342L266.443,432z M312,320c0,17.645-14.355,32-32,32
			h-0.115H136.178H136c-17.645,0-32-14.355-32-32V128c0-17.646,14.355-32,32-32h0.178h143.706H280c17.645,0,32,14.354,32,32V320z"/>
	</g>
</g>
<g>
</g>
<g>
</g>
<g>
</g>
<g>
</g>
<g>
</g>
<g>
</g>
<g>
</g>
<g>
</g>
<g>
</g>
<g>
</g>
<g>
</g>
<g>
</g>
<g>
</g>
<g>
</g>
<g>
</g>
</svg>
